<mxfile host="app.diagrams.net" modified="2024-04-28T17:30:52.022Z" agent="Mozilla/5.0 (Windows NT 10.0; Win64; x64) AppleWebKit/537.36 (KHTML, like Gecko) Chrome/124.0.0.0 Safari/537.36" etag="Kv20LOJnBuRNojGaPGiK" version="24.3.1" type="device">
  <diagram name="Page-1" id="cC006ZMHLQa5iZIDhzEo">
    <mxGraphModel dx="1050" dy="565" grid="1" gridSize="10" guides="1" tooltips="1" connect="1" arrows="1" fold="1" page="1" pageScale="1" pageWidth="850" pageHeight="1100" math="0" shadow="0">
      <root>
        <mxCell id="0" />
        <mxCell id="1" parent="0" />
        <mxCell id="zMbGcU4NARKiyMhfRU6_-1" value="" style="shape=umlLifeline;perimeter=lifelinePerimeter;whiteSpace=wrap;html=1;container=1;dropTarget=0;collapsible=0;recursiveResize=0;outlineConnect=0;portConstraint=eastwest;newEdgeStyle={&quot;curved&quot;:0,&quot;rounded&quot;:0};participant=umlActor;" vertex="1" parent="1">
          <mxGeometry x="230" y="320" width="20" height="540" as="geometry" />
        </mxCell>
        <mxCell id="zMbGcU4NARKiyMhfRU6_-5" value="" style="html=1;points=[[0,0,0,0,5],[0,1,0,0,-5],[1,0,0,0,5],[1,1,0,0,-5]];perimeter=orthogonalPerimeter;outlineConnect=0;targetShapes=umlLifeline;portConstraint=eastwest;newEdgeStyle={&quot;curved&quot;:0,&quot;rounded&quot;:0};" vertex="1" parent="zMbGcU4NARKiyMhfRU6_-1">
          <mxGeometry y="80" width="20" height="430" as="geometry" />
        </mxCell>
        <mxCell id="zMbGcU4NARKiyMhfRU6_-2" value="page" style="shape=umlLifeline;perimeter=lifelinePerimeter;whiteSpace=wrap;html=1;container=1;dropTarget=0;collapsible=0;recursiveResize=0;outlineConnect=0;portConstraint=eastwest;newEdgeStyle={&quot;curved&quot;:0,&quot;rounded&quot;:0};" vertex="1" parent="1">
          <mxGeometry x="350" y="330" width="100" height="530" as="geometry" />
        </mxCell>
        <mxCell id="zMbGcU4NARKiyMhfRU6_-8" value="" style="html=1;points=[[0,0,0,0,5],[0,1,0,0,-5],[1,0,0,0,5],[1,1,0,0,-5]];perimeter=orthogonalPerimeter;outlineConnect=0;targetShapes=umlLifeline;portConstraint=eastwest;newEdgeStyle={&quot;curved&quot;:0,&quot;rounded&quot;:0};" vertex="1" parent="zMbGcU4NARKiyMhfRU6_-2">
          <mxGeometry x="40" y="60" width="20" height="200" as="geometry" />
        </mxCell>
        <mxCell id="zMbGcU4NARKiyMhfRU6_-18" value="" style="html=1;points=[[0,0,0,0,5],[0,1,0,0,-5],[1,0,0,0,5],[1,1,0,0,-5]];perimeter=orthogonalPerimeter;outlineConnect=0;targetShapes=umlLifeline;portConstraint=eastwest;newEdgeStyle={&quot;curved&quot;:0,&quot;rounded&quot;:0};" vertex="1" parent="zMbGcU4NARKiyMhfRU6_-2">
          <mxGeometry x="40" y="310" width="20" height="110" as="geometry" />
        </mxCell>
        <mxCell id="zMbGcU4NARKiyMhfRU6_-3" value="item" style="shape=umlLifeline;perimeter=lifelinePerimeter;whiteSpace=wrap;html=1;container=1;dropTarget=0;collapsible=0;recursiveResize=0;outlineConnect=0;portConstraint=eastwest;newEdgeStyle={&quot;curved&quot;:0,&quot;rounded&quot;:0};" vertex="1" parent="1">
          <mxGeometry x="530" y="330" width="100" height="500" as="geometry" />
        </mxCell>
        <mxCell id="zMbGcU4NARKiyMhfRU6_-11" value="" style="html=1;points=[[0,0,0,0,5],[0,1,0,0,-5],[1,0,0,0,5],[1,1,0,0,-5]];perimeter=orthogonalPerimeter;outlineConnect=0;targetShapes=umlLifeline;portConstraint=eastwest;newEdgeStyle={&quot;curved&quot;:0,&quot;rounded&quot;:0};" vertex="1" parent="zMbGcU4NARKiyMhfRU6_-3">
          <mxGeometry x="40" y="110" width="20" height="100" as="geometry" />
        </mxCell>
        <mxCell id="zMbGcU4NARKiyMhfRU6_-21" value="" style="html=1;points=[[0,0,0,0,5],[0,1,0,0,-5],[1,0,0,0,5],[1,1,0,0,-5]];perimeter=orthogonalPerimeter;outlineConnect=0;targetShapes=umlLifeline;portConstraint=eastwest;newEdgeStyle={&quot;curved&quot;:0,&quot;rounded&quot;:0};" vertex="1" parent="zMbGcU4NARKiyMhfRU6_-3">
          <mxGeometry x="40" y="340" width="20" height="70" as="geometry" />
        </mxCell>
        <mxCell id="zMbGcU4NARKiyMhfRU6_-4" value="database" style="shape=umlLifeline;perimeter=lifelinePerimeter;whiteSpace=wrap;html=1;container=1;dropTarget=0;collapsible=0;recursiveResize=0;outlineConnect=0;portConstraint=eastwest;newEdgeStyle={&quot;curved&quot;:0,&quot;rounded&quot;:0};" vertex="1" parent="1">
          <mxGeometry x="670" y="330" width="100" height="500" as="geometry" />
        </mxCell>
        <mxCell id="zMbGcU4NARKiyMhfRU6_-12" value="" style="html=1;points=[[0,0,0,0,5],[0,1,0,0,-5],[1,0,0,0,5],[1,1,0,0,-5]];perimeter=orthogonalPerimeter;outlineConnect=0;targetShapes=umlLifeline;portConstraint=eastwest;newEdgeStyle={&quot;curved&quot;:0,&quot;rounded&quot;:0};" vertex="1" parent="zMbGcU4NARKiyMhfRU6_-4">
          <mxGeometry x="40" y="120" width="20" height="80" as="geometry" />
        </mxCell>
        <mxCell id="zMbGcU4NARKiyMhfRU6_-24" value="" style="html=1;points=[[0,0,0,0,5],[0,1,0,0,-5],[1,0,0,0,5],[1,1,0,0,-5]];perimeter=orthogonalPerimeter;outlineConnect=0;targetShapes=umlLifeline;portConstraint=eastwest;newEdgeStyle={&quot;curved&quot;:0,&quot;rounded&quot;:0};" vertex="1" parent="zMbGcU4NARKiyMhfRU6_-4">
          <mxGeometry x="40" y="350" width="20" height="100" as="geometry" />
        </mxCell>
        <mxCell id="zMbGcU4NARKiyMhfRU6_-6" value="click addnew product" style="html=1;verticalAlign=bottom;endArrow=block;curved=0;rounded=0;" edge="1" parent="1" target="zMbGcU4NARKiyMhfRU6_-8">
          <mxGeometry width="80" relative="1" as="geometry">
            <mxPoint x="250" y="420" as="sourcePoint" />
            <mxPoint x="330" y="420" as="targetPoint" />
          </mxGeometry>
        </mxCell>
        <mxCell id="zMbGcU4NARKiyMhfRU6_-9" value="add product(product details)" style="html=1;verticalAlign=bottom;endArrow=block;curved=0;rounded=0;" edge="1" parent="1">
          <mxGeometry width="80" relative="1" as="geometry">
            <mxPoint x="410" y="450" as="sourcePoint" />
            <mxPoint x="570" y="450" as="targetPoint" />
          </mxGeometry>
        </mxCell>
        <mxCell id="zMbGcU4NARKiyMhfRU6_-13" value="saveproduct" style="html=1;verticalAlign=bottom;endArrow=block;curved=0;rounded=0;" edge="1" parent="1" target="zMbGcU4NARKiyMhfRU6_-4">
          <mxGeometry width="80" relative="1" as="geometry">
            <mxPoint x="590" y="490" as="sourcePoint" />
            <mxPoint x="670" y="490" as="targetPoint" />
          </mxGeometry>
        </mxCell>
        <mxCell id="zMbGcU4NARKiyMhfRU6_-14" value="productid" style="html=1;verticalAlign=bottom;endArrow=open;dashed=1;endSize=8;curved=0;rounded=0;" edge="1" parent="1">
          <mxGeometry relative="1" as="geometry">
            <mxPoint x="710" y="519.5" as="sourcePoint" />
            <mxPoint x="590" y="520" as="targetPoint" />
          </mxGeometry>
        </mxCell>
        <mxCell id="zMbGcU4NARKiyMhfRU6_-15" value="productid" style="html=1;verticalAlign=bottom;endArrow=open;dashed=1;endSize=8;curved=0;rounded=0;" edge="1" parent="1" target="zMbGcU4NARKiyMhfRU6_-8">
          <mxGeometry relative="1" as="geometry">
            <mxPoint x="570" y="529.5" as="sourcePoint" />
            <mxPoint x="420" y="530" as="targetPoint" />
          </mxGeometry>
        </mxCell>
        <mxCell id="zMbGcU4NARKiyMhfRU6_-17" value="result" style="html=1;verticalAlign=bottom;endArrow=open;dashed=1;endSize=8;curved=0;rounded=0;" edge="1" parent="1" target="zMbGcU4NARKiyMhfRU6_-5">
          <mxGeometry relative="1" as="geometry">
            <mxPoint x="390" y="549" as="sourcePoint" />
            <mxPoint x="310" y="549" as="targetPoint" />
          </mxGeometry>
        </mxCell>
        <mxCell id="zMbGcU4NARKiyMhfRU6_-19" value="click delete product" style="html=1;verticalAlign=bottom;endArrow=block;curved=0;rounded=0;" edge="1" parent="1">
          <mxGeometry width="80" relative="1" as="geometry">
            <mxPoint x="250" y="680" as="sourcePoint" />
            <mxPoint x="390" y="680" as="targetPoint" />
          </mxGeometry>
        </mxCell>
        <mxCell id="zMbGcU4NARKiyMhfRU6_-22" value="productid" style="html=1;verticalAlign=bottom;endArrow=block;curved=0;rounded=0;" edge="1" parent="1" target="zMbGcU4NARKiyMhfRU6_-21">
          <mxGeometry width="80" relative="1" as="geometry">
            <mxPoint x="410" y="710" as="sourcePoint" />
            <mxPoint x="490" y="710" as="targetPoint" />
          </mxGeometry>
        </mxCell>
        <mxCell id="zMbGcU4NARKiyMhfRU6_-23" value="deleteproduct" style="html=1;verticalAlign=bottom;endArrow=block;curved=0;rounded=0;" edge="1" parent="1" target="zMbGcU4NARKiyMhfRU6_-24">
          <mxGeometry width="80" relative="1" as="geometry">
            <mxPoint x="590" y="730" as="sourcePoint" />
            <mxPoint x="670" y="730" as="targetPoint" />
          </mxGeometry>
        </mxCell>
        <mxCell id="zMbGcU4NARKiyMhfRU6_-25" value="result" style="html=1;verticalAlign=bottom;endArrow=open;dashed=1;endSize=8;curved=0;rounded=0;" edge="1" parent="1" target="zMbGcU4NARKiyMhfRU6_-5">
          <mxGeometry relative="1" as="geometry">
            <mxPoint x="710" y="770" as="sourcePoint" />
            <mxPoint x="630" y="770" as="targetPoint" />
          </mxGeometry>
        </mxCell>
        <mxCell id="zMbGcU4NARKiyMhfRU6_-26" value="customer" style="text;html=1;align=center;verticalAlign=middle;resizable=0;points=[];autosize=1;strokeColor=none;fillColor=none;" vertex="1" parent="1">
          <mxGeometry x="205" y="370" width="70" height="30" as="geometry" />
        </mxCell>
      </root>
    </mxGraphModel>
  </diagram>
</mxfile>
